Patient4_TMGait_0pt6_02_right_35_EMG.mot
version=1
nRows=20
nColumns=33
inDegrees=no
endheader
time	1LAddLong	2LGlutMax	3LGlutMed	4LIliopsoas	5LSemiMemb	6LBicFemLong	7LRecFem	8LVastMed	9LVastLat	10LGasMed	11LTibAnt	12lTibPost	13LPeroneusLong	14LSol	15LExtDigLong	16LFlexDigLong	17RAddLong	18RGlutMax	19RGlutMed	20RIliopsoas	21RSemiMemb	22RBicFemLong	23RRecFem	24RVastMed	25RVastLat	26RGasMed	27RTibAnt	28RTibPost	29RPeroneusLong	30RSol	31RExtDigLong	32RFlexDigLong
42.547	0.013885	-0.57281	-0.064545	-0.016479	0.000458	-0.022278	-0.74875	0.010223	0.18646	-0.053864	-0.005188	0.018005	-0.082855	0.37064	0.007935	0.018311	-0.10086	-1.6492	-0.38208	0.084076	0.53024	-0.35599	0.18631	0.13992	-0.12009	0.013123	0.1413	-0.027771	0.61127	-0.051117	-0.005188	0.007019
42.548	0.024719	-0.49637	-0.051117	-0.009918	0.006714	-0.010834	-0.81726	-0.015106	0.16953	-0.051117	-0.023499	0.015564	-0.11398	0.22369	0.028229	0.004578	-0.049133	-1.7407	-0.76141	-0.05127	0.1944	-0.45502	0.24796	0.026398	-0.13809	0.006256	0.14725	-0.028992	0.63965	-0.002289	-0.010223	0.005188
42.549	0.011902	-0.47989	-0.032349	-0.016785	0.001526	-0.032501	-0.79804	-0.015717	0.19241	-0.028992	-0.024567	0.013123	-0.12299	0.12161	0.033264	0.012207	-0.026398	-1.7445	-0.73639	-0.20065	0.15106	-0.4068	0.30411	0.02594	-0.12177	0.020905	0.10407	-0.029602	0.72647	0.001221	-0.009308	-0.002136
42.55	0.010529	-0.47791	-0.036316	-0.018158	0.008087	-0.049591	-0.71442	-0.028229	0.20096	0.003967	-0.01297	0.002747	-0.11475	0.079498	0.075531	0.024261	-0.029602	-1.9823	0.15182	-0.17838	0.094299	-0.31876	0.32577	-0.024109	0.015106	0.002747	0.005493	-0.02594	0.24735	-0.01236	-0.004883	-0.000763
42.551	-0.001526	-0.43976	-0.020447	-0.015564	0	-0.066071	-0.41962	-0.031281	0.22049	-0.01709	-0.027618	0.001373	-0.112	0.049896	0.13672	0.013885	-0.008545	-2.1928	0.34515	-0.075226	0.092773	-0.3212	0.29648	-0.023651	0.34058	-0.025024	-0.014343	-0.02243	-0.048981	0.040131	-0.012817	-0.003052
42.552	-0.006256	-0.39749	-0.032806	-0.013428	0.010529	-0.06958	-0.23438	-0.02182	0.16602	-0.044098	-0.039368	-0.005035	-0.11719	0.03952	0.11108	0.009155	0.022736	-2.3758	-0.22354	0.023346	0.1355	-0.19043	0.34271	0.20798	0.38559	-0.050354	0.025635	-0.023804	0.093384	0.15121	-0.009003	-0.004272
42.553	-0.003662	-0.38864	-0.062256	-0.007172	0.011597	-0.088806	-0.084991	-0.013428	0.14465	-0.04425	-0.085754	-0.006866	-0.087585	0.11978	0.021362	0.012512	0.026703	-2.4628	-0.83481	-0.05127	0.080414	-0.62164	0.40237	0.34836	0.2214	-0.066528	0.060577	-0.029755	-0.10193	0.19486	-0.002441	-0.004578
42.554	-0.010376	-0.35843	-0.08194	-0.001984	0.008545	-0.075378	0.019226	-0.062256	0.1207	-0.056305	-0.12726	0.001373	-0.071259	0.15701	0.021362	0.009918	0.040436	-2.515	-0.60379	-0.12421	-0.094452	-0.67993	0.58807	0.35477	0.016937	-0.055542	0.11429	-0.050354	-0.52704	0.15289	-0.002747	-0.021667
42.555	0.011139	-0.31632	-0.072479	-0.004883	0.004425	-0.065613	0.064392	-0.055084	0.11063	-0.031128	-0.16159	0.016479	-0.080872	0.1294	0.027771	0.002747	0.034943	-2.5122	-0.96374	-0.068207	-0.20538	-0.46967	0.5838	0.27039	-0.14038	-0.043182	0.1294	0.082397	-0.83206	0.13718	-0.00412	-0.01358
42.556	0.00473	-0.2684	-0.05249	-0.012817	0.020142	-0.066986	0.044403	-0.016785	0.077515	-0.012207	-0.037231	0.010071	-0.1001	0.089874	-0.048981	-0.010223	0.007019	-2.5728	-0.97702	-0.086365	-0.021515	-0.52475	0.50507	0.20462	-0.27023	-0.090637	0.081635	0.037079	-0.50003	0.23224	-0.003357	-0.010376
42.557	0.006409	-0.22369	-0.036316	-0.010986	0.008392	-0.028534	0.050201	-0.023193	0.036621	0.010223	0.076599	0.007477	-0.17151	0.088501	-0.13351	-0.02121	-0.029907	-2.6784	-0.51086	-0.071716	-0.023193	-0.5632	0.37796	0.29373	-0.43137	-0.08606	-0.010681	-0.033112	0.58579	0.19226	-0.00351	-0.012512
42.558	0.011902	-0.18265	-0.036469	0.005341	0.02533	0.00351	0.022888	-0.011597	0.00473	0.017548	0.11459	0.001678	-0.15396	0.12512	0.012665	-0.024261	-0.003967	-2.6442	-1.0374	0.026245	-0.099945	-0.70557	0.47241	0.062714	-0.49179	-0.016785	-0.070038	-0.050201	1.0921	0.086365	-0.001221	0.000916
42.559	0.019379	-0.11414	-0.030823	0.015259	0.019226	0.00824	-0.039978	0.002441	-0.04364	-0.003815	0.31555	0.010681	-0.11734	0.16861	-0.022888	-0.019226	0.011597	-2.6477	-1.0768	-0.029297	-0.044403	-1.2132	0.54413	-0.1413	-0.45959	0.066071	0.084229	-0.059967	-0.026703	0.053864	-0.002747	-0.011902
42.56	0.010986	-0.022736	-0.045471	0.014954	0.008087	0.044098	-0.092773	0.008087	-0.049744	-0.031281	0.57556	0.00473	-0.09491	0.18356	0.52078	-0.00824	0.013275	-2.5322	-0.65689	-0.062714	-0.018616	-1.2666	0.29419	-0.2388	-0.25696	0.072327	0.16815	-0.00351	-0.95306	0.024261	-0.007324	-0.019226
42.561	0.00061	0.055695	-0.065155	0.018005	0.005646	0.061493	-0.075989	0.014343	-0.076294	-0.036621	0.40131	0.00885	-0.052032	0.20996	0.26688	0.008545	0.040588	-2.3233	-0.75577	-0.17258	0.023346	-1.04	0.14526	-0.17319	-0.10696	0.041046	0.062714	0.13962	-0.52475	-0.04364	-0.003967	-0.010071
42.562	-0.002899	0.074158	-0.059509	-0.000305	0.001373	0.082397	-0.01358	0.025024	-0.086212	-0.024719	0.21561	0.028839	-0.10513	0.25971	-0.10498	0.007324	0.05661	-2.1245	-0.75531	-0.18356	0.025787	-1.1017	0.3035	-0.001068	-0.013885	-0.007935	-0.03479	0.036163	1.5018	-0.012817	-0.003662	-0.011444
42.563	-0.00473	0.081024	-0.058594	-0.013428	-0.002136	0.10788	0.022125	0.025024	-0.099487	-0.015259	-0.15717	-0.006104	-0.1059	0.25131	-0.34241	0.016632	0.03891	-1.8794	-0.48233	-0.080261	-0.19302	-1.0075	0.44952	-0.052795	-0.016327	-0.017395	0.048828	-0.028534	0.010529	0.14206	-0.004578	-0.000153
42.564	-0.012512	0.086823	-0.056152	-0.003662	-0.006714	0.066376	-0.033264	0.015717	-0.099945	-0.013123	-0.13931	0.010986	-0.13443	0.18433	-0.41687	0.009613	0.00885	-1.6772	-0.85205	-0.038757	-0.37842	-0.914	0.26733	-0.1149	-0.019684	-0.004578	0.14572	-0.019073	-0.48996	-0.033417	0.000763	-0.00885
42.565	-0.053558	0.089569	-0.044708	0.00473	0.001068	0.06546	-0.034485	0.029907	-0.11536	-0.02243	-0.041199	0.005951	-0.098724	0.094757	0.038757	0.022583	-0.07431	-1.5192	-1.4272	0.19638	-0.5098	-0.5658	-0.059662	0.041962	0.08194	0.049591	0.11398	-0.00473	1.1586	-0.36041	-0.00473	-0.000458
42.566	-0.042725	0.10117	-0.052338	-0.008698	0.012817	0.05249	-0.007935	0.030365	-0.13657	-0.049133	-0.15381	0.005035	0.031281	0.077209	0.15961	0.019073	-0.041199	-1.3432	-1.4873	0.30594	-0.14099	-0.34012	-0.095978	0.10788	0.088348	0.05249	0.18265	-0.007172	1.0811	-0.38269	-0.001068	-0.010071
